<svg width="115" height="115" viewBox="0 0 115 115" fill="none" xmlns="http://www.w3.org/2000/svg">
<circle cx="57.5" cy="57.5" r="45.5" stroke="#05566A" stroke-width="2" stroke-dasharray="10 10"/>
<g filter="url(#filter0_f_103_1312)">
<path d="M95 57.5C95 78.2107 78.2107 95 57.5 95C36.7893 95 20 78.2107 20 57.5C20 36.7893 36.7893 20 57.5 20C78.2107 20 95 36.7893 95 57.5Z" fill="#05566A" fill-opacity="0.3"/>
</g>
<path d="M55.8027 53.15C54.7027 53.3 54.5027 52.6 55.7527 52.1C60.3527 50.3 63.3027 49.45 65.0527 47.6C67.1027 45.4 67.0527 43.5 67.0527 42.05C67.0527 41.2 66.3527 40.5 65.5027 40.5H48.5027C47.6527 40.5 46.9527 41.2 46.9527 42.05V42.15C46.9527 43.05 47.6527 43.7 48.5027 43.7C48.5027 43.7 61.2527 43.7 62.4027 43.7C63.5527 43.7 63.9527 44.4 63.3027 45.3C62.2527 46.55 58.3527 48.1 54.7027 49.8C51.5027 51.3 49.5027 52.75 49.5027 53.95C49.5027 55.5 50.6027 56 52.5527 55.75C53.6527 55.6 55.5027 55.35 56.7527 55.35C62.0527 55.35 66.7027 59.1 66.7027 64.85C66.7027 70.55 62.2527 74.65 56.7527 74.65C51.4527 74.65 48.9527 72 47.5527 70.55C45.5527 68.55 43.5527 70.5 45.2027 72.45C48.1027 75.95 52.6027 77.65 56.7527 77.65C63.9027 77.65 69.7027 72.25 69.7027 64.85C69.7027 57.45 64.7027 51.6 55.8027 53.15Z" fill="#05566A"/>
<defs>
<filter id="filter0_f_103_1312" x="0" y="0" width="115" height="115" filterUnits="userSpaceOnUse" color-interpolation-filters="sRGB">
<feFlood flood-opacity="0" result="BackgroundImageFix"/>
<feBlend mode="normal" in="SourceGraphic" in2="BackgroundImageFix" result="shape"/>
<feGaussianBlur stdDeviation="10" result="effect1_foregroundBlur_103_1312"/>
</filter>
</defs>
</svg>
